# xmcd
#
# Track frame offsets:
#	150
#	13510
#	24795
#	35192
#	45807
#	58817
#	70745
#	83115
#	99032
#	109632
#	123035
#	133537
#	144517
#	155707
#	167997
#	177722
#	189222
#	202927
#	214292
#	227322
#	237787
#	249150
#	262280
#	275767
#	287035
#
# Disc length: 3986 seconds
# Revision: 2
# Processed by: cddbd v1.5.2PL0 Copyright (c) Steve Scherf et al.
# Submitted via: dBpowerAMP V12.0
#
DISCID=560f9019
DTITLE=Chuck Willis - Wails! The Complete OKeh, Epic and Columbia Recordings, 1951-1956, Disc 2 [Sundazed SC 11122]
DYEAR=2003
DGENRE=Blues
TTITLE0=Need One More Chance
TTITLE1=You Win This Time (prev unreleased)
TTITLE2=Keep A Knockin'
TTITLE3=If I Had A Million
TTITLE4=Change My Mind
TTITLE5=My Heart's Been Broke Again
TTITLE6=I Don't Mind If I Do
TTITLE7=Blow, Freddy Jackson
TTITLE8=Welcome Home
TTITLE9=Give And Take
TTITLE10=I've Been Away Too Long
TTITLE11=Peace And Love (prev unreleased)
TTITLE12=Love-Struck
TTITLE13=It Were You
TTITLE14=Lawdy Miss Mary
TTITLE15=Search My Heart (prev unreleased)
TTITLE16=Come On Home
TTITLE17=One More Break
TTITLE18=I Can Tell
TTITLE19=Search My Heart
TTITLE20=Ring-Ding-Doo
TTITLE21=Two Spoons Of Tears
TTITLE22=Charged With Cheating
TTITLE23=Bless Her Heart
TTITLE24=Night Of Misery
EXTD=
EXTT0=
EXTT1=
EXTT2=
EXTT3=
EXTT4=
EXTT5=
EXTT6=
EXTT7=
EXTT8=
EXTT9=
EXTT10=
EXTT11=
EXTT12=
EXTT13=
EXTT14=
EXTT15=
EXTT16=
EXTT17=
EXTT18=
EXTT19=
EXTT20=
EXTT21=
EXTT22=
EXTT23=
EXTT24=
PLAYORDER=
